<mxfile host="app.diagrams.net" agent="Mozilla/5.0 (Windows NT 10.0; Win64; x64) AppleWebKit/537.36 (KHTML, like Gecko) Chrome/130.0.0.0 Safari/537.36" version="24.8.6">
  <diagram name="Page-1" id="c37626ed-c26b-45fb-9056-f9ebc6bb27b6">
    <mxGraphModel dx="1434" dy="738" grid="1" gridSize="10" guides="1" tooltips="1" connect="1" arrows="1" fold="1" page="1" pageScale="1" pageWidth="1100" pageHeight="850" background="none" math="0" shadow="0">
      <root>
        <mxCell id="0" />
        <mxCell id="1" parent="0" />
        <mxCell id="65ECxzcoCHH_Zel8r9IZ-4" value="" style="shape=mxgraph.cisco.routers.router;sketch=0;html=1;pointerEvents=1;dashed=0;fillColor=#036897;strokeColor=#ffffff;strokeWidth=2;verticalLabelPosition=bottom;verticalAlign=top;align=center;outlineConnect=0;" vertex="1" parent="1">
          <mxGeometry x="250" y="400" width="78" height="53" as="geometry" />
        </mxCell>
        <mxCell id="65ECxzcoCHH_Zel8r9IZ-5" value="" style="shape=mxgraph.cisco.routers.router;sketch=0;html=1;pointerEvents=1;dashed=0;fillColor=#036897;strokeColor=#ffffff;strokeWidth=2;verticalLabelPosition=bottom;verticalAlign=top;align=center;outlineConnect=0;" vertex="1" parent="1">
          <mxGeometry x="550" y="400" width="78" height="53" as="geometry" />
        </mxCell>
        <mxCell id="65ECxzcoCHH_Zel8r9IZ-6" value="" style="shape=mxgraph.cisco.routers.router;sketch=0;html=1;pointerEvents=1;dashed=0;fillColor=#036897;strokeColor=#ffffff;strokeWidth=2;verticalLabelPosition=bottom;verticalAlign=top;align=center;outlineConnect=0;" vertex="1" parent="1">
          <mxGeometry x="400" y="500" width="78" height="53" as="geometry" />
        </mxCell>
        <mxCell id="65ECxzcoCHH_Zel8r9IZ-7" value="" style="shape=mxgraph.cisco.routers.router;sketch=0;html=1;pointerEvents=1;dashed=0;fillColor=#036897;strokeColor=#ffffff;strokeWidth=2;verticalLabelPosition=bottom;verticalAlign=top;align=center;outlineConnect=0;" vertex="1" parent="1">
          <mxGeometry x="250" y="300" width="78" height="53" as="geometry" />
        </mxCell>
        <mxCell id="65ECxzcoCHH_Zel8r9IZ-8" value="" style="shape=mxgraph.cisco.computers_and_peripherals.pc;html=1;pointerEvents=1;dashed=0;fillColor=#036897;strokeColor=#ffffff;strokeWidth=2;verticalLabelPosition=bottom;verticalAlign=top;align=center;outlineConnect=0;" vertex="1" parent="1">
          <mxGeometry x="400" y="600" width="78" height="70" as="geometry" />
        </mxCell>
        <mxCell id="65ECxzcoCHH_Zel8r9IZ-15" value="" style="endArrow=none;html=1;rounded=0;entryX=0.12;entryY=0.9;entryDx=0;entryDy=0;entryPerimeter=0;exitX=0.88;exitY=0.1;exitDx=0;exitDy=0;exitPerimeter=0;" edge="1" parent="1" source="65ECxzcoCHH_Zel8r9IZ-6" target="65ECxzcoCHH_Zel8r9IZ-5">
          <mxGeometry width="50" height="50" relative="1" as="geometry">
            <mxPoint x="580" y="550" as="sourcePoint" />
            <mxPoint x="630" y="500" as="targetPoint" />
          </mxGeometry>
        </mxCell>
        <mxCell id="65ECxzcoCHH_Zel8r9IZ-16" value="" style="endArrow=none;html=1;rounded=0;entryX=0.5;entryY=1;entryDx=0;entryDy=0;entryPerimeter=0;exitX=0.5;exitY=0;exitDx=0;exitDy=0;exitPerimeter=0;" edge="1" parent="1" source="65ECxzcoCHH_Zel8r9IZ-8" target="65ECxzcoCHH_Zel8r9IZ-6">
          <mxGeometry width="50" height="50" relative="1" as="geometry">
            <mxPoint x="475" y="677" as="sourcePoint" />
            <mxPoint x="625" y="620" as="targetPoint" />
          </mxGeometry>
        </mxCell>
        <mxCell id="65ECxzcoCHH_Zel8r9IZ-17" value="" style="endArrow=none;html=1;rounded=0;entryX=0.12;entryY=0.1;entryDx=0;entryDy=0;entryPerimeter=0;exitX=0.88;exitY=0.9;exitDx=0;exitDy=0;exitPerimeter=0;" edge="1" parent="1" source="65ECxzcoCHH_Zel8r9IZ-4" target="65ECxzcoCHH_Zel8r9IZ-6">
          <mxGeometry width="50" height="50" relative="1" as="geometry">
            <mxPoint x="250" y="605" as="sourcePoint" />
            <mxPoint x="400" y="548" as="targetPoint" />
          </mxGeometry>
        </mxCell>
        <mxCell id="65ECxzcoCHH_Zel8r9IZ-19" value="" style="endArrow=none;html=1;rounded=0;entryX=0.5;entryY=1;entryDx=0;entryDy=0;entryPerimeter=0;exitX=0.5;exitY=0;exitDx=0;exitDy=0;exitPerimeter=0;" edge="1" parent="1" source="65ECxzcoCHH_Zel8r9IZ-4" target="65ECxzcoCHH_Zel8r9IZ-7">
          <mxGeometry width="50" height="50" relative="1" as="geometry">
            <mxPoint x="300" y="425" as="sourcePoint" />
            <mxPoint x="450" y="368" as="targetPoint" />
          </mxGeometry>
        </mxCell>
        <mxCell id="65ECxzcoCHH_Zel8r9IZ-20" value="" style="shape=mxgraph.cisco.servers.fileserver;sketch=0;html=1;pointerEvents=1;dashed=0;fillColor=#036897;strokeColor=#ffffff;strokeWidth=2;verticalLabelPosition=bottom;verticalAlign=top;align=center;outlineConnect=0;" vertex="1" parent="1">
          <mxGeometry x="350" y="150" width="70" height="100" as="geometry" />
        </mxCell>
        <mxCell id="65ECxzcoCHH_Zel8r9IZ-21" value="" style="endArrow=none;html=1;rounded=0;entryX=0;entryY=0.5;entryDx=0;entryDy=0;entryPerimeter=0;exitX=0.5;exitY=0;exitDx=0;exitDy=0;exitPerimeter=0;" edge="1" parent="1" source="65ECxzcoCHH_Zel8r9IZ-7" target="65ECxzcoCHH_Zel8r9IZ-20">
          <mxGeometry width="50" height="50" relative="1" as="geometry">
            <mxPoint x="350" y="287" as="sourcePoint" />
            <mxPoint x="500" y="230" as="targetPoint" />
          </mxGeometry>
        </mxCell>
        <mxCell id="65ECxzcoCHH_Zel8r9IZ-22" value="" style="endArrow=none;html=1;rounded=0;entryX=0.12;entryY=0.1;entryDx=0;entryDy=0;entryPerimeter=0;exitX=1;exitY=0.5;exitDx=0;exitDy=0;exitPerimeter=0;" edge="1" parent="1" source="65ECxzcoCHH_Zel8r9IZ-7" target="65ECxzcoCHH_Zel8r9IZ-5">
          <mxGeometry width="50" height="50" relative="1" as="geometry">
            <mxPoint x="370" y="357" as="sourcePoint" />
            <mxPoint x="520" y="300" as="targetPoint" />
          </mxGeometry>
        </mxCell>
        <mxCell id="65ECxzcoCHH_Zel8r9IZ-23" value="Source" style="text;html=1;align=center;verticalAlign=middle;resizable=0;points=[];autosize=1;strokeColor=none;fillColor=none;" vertex="1" parent="1">
          <mxGeometry x="355" y="120" width="60" height="30" as="geometry" />
        </mxCell>
        <mxCell id="65ECxzcoCHH_Zel8r9IZ-24" value="Receiver" style="text;html=1;align=center;verticalAlign=middle;resizable=0;points=[];autosize=1;strokeColor=none;fillColor=none;" vertex="1" parent="1">
          <mxGeometry x="404" y="670" width="70" height="30" as="geometry" />
        </mxCell>
        <mxCell id="65ECxzcoCHH_Zel8r9IZ-25" value="R3(RP)" style="text;html=1;align=center;verticalAlign=middle;resizable=0;points=[];autosize=1;strokeColor=none;fillColor=none;" vertex="1" parent="1">
          <mxGeometry x="628" y="411.5" width="60" height="30" as="geometry" />
        </mxCell>
        <mxCell id="65ECxzcoCHH_Zel8r9IZ-26" value="R2" style="text;html=1;align=center;verticalAlign=middle;resizable=0;points=[];autosize=1;strokeColor=none;fillColor=none;" vertex="1" parent="1">
          <mxGeometry x="210" y="411.5" width="40" height="30" as="geometry" />
        </mxCell>
        <mxCell id="65ECxzcoCHH_Zel8r9IZ-27" value="R1" style="text;html=1;align=center;verticalAlign=middle;resizable=0;points=[];autosize=1;strokeColor=none;fillColor=none;" vertex="1" parent="1">
          <mxGeometry x="210" y="311.5" width="40" height="30" as="geometry" />
        </mxCell>
        <mxCell id="65ECxzcoCHH_Zel8r9IZ-28" value="R4" style="text;html=1;align=center;verticalAlign=middle;resizable=0;points=[];autosize=1;strokeColor=none;fillColor=none;" vertex="1" parent="1">
          <mxGeometry x="360" y="511.5" width="40" height="30" as="geometry" />
        </mxCell>
        <mxCell id="65ECxzcoCHH_Zel8r9IZ-29" value="" style="endArrow=none;html=1;rounded=0;entryX=0;entryY=0.5;entryDx=0;entryDy=0;entryPerimeter=0;exitX=1;exitY=0.5;exitDx=0;exitDy=0;exitPerimeter=0;" edge="1" parent="1" source="65ECxzcoCHH_Zel8r9IZ-4" target="65ECxzcoCHH_Zel8r9IZ-5">
          <mxGeometry width="50" height="50" relative="1" as="geometry">
            <mxPoint x="350" y="453" as="sourcePoint" />
            <mxPoint x="500" y="396" as="targetPoint" />
          </mxGeometry>
        </mxCell>
      </root>
    </mxGraphModel>
  </diagram>
</mxfile>
